# xmcd CD database file
#
# Track frame offsets:
#	225
#	12642
#	24557
#	38777
#	49222
#	67005
#	77395
#	94600
#	108250
#	122600
#	142345
#	158517
#	167172
#
# Disc length: 2483 seconds
#
# Revision: 0
# Processed by: cddbd v1.5.2PL0 Copyright (c) Steve Scherf et al.
# Submitted via: CDex 1.70beta2
#
DISCID=a709b00d
DTITLE=Waldemar a Olga - Niagara
DYEAR=1900
DGENRE=Country
TTITLE0=Zlatokop Tom
TTITLE1=Moře hučí
TTITLE2=Mým domovem ztichlá je putyka
TTITLE3=Mariňák
TTITLE4=Cesta mořem
TTITLE5=Námořnickej bál
TTITLE6=Niagara
TTITLE7=Rikatádo
TTITLE8=Líbám Tě dnes naposledy
TTITLE9=Anita
TTITLE10=Chata na vodě
TTITLE11=Tuhle rundu platím já
TTITLE12=Až přijde ta chvíle
EXTD=
EXTT0=
EXTT1=
EXTT2=
EXTT3=
EXTT4=
EXTT5=
EXTT6=
EXTT7=
EXTT8=
EXTT9=
EXTT10=
EXTT11=
EXTT12=
PLAYORDER=
